<svg width="14" height="14" viewBox="0 0 14 14" fill="none" xmlns="http://www.w3.org/2000/svg">
<path fill-rule="evenodd" clip-rule="evenodd" d="M7.58333 1.16668C7.58333 0.844511 7.32217 0.583344 7 0.583344C6.67783 0.583344 6.41667 0.844511 6.41667 1.16668V1.75001C4.80584 1.75001 3.5 3.05585 3.5 4.66668C3.5 6.27751 4.80584 7.58334 6.41667 7.58334V11.0833C5.45017 11.0833 4.66667 10.2998 4.66667 9.33334C4.66667 9.01118 4.4055 8.75001 4.08333 8.75001C3.76117 8.75001 3.5 9.01118 3.5 9.33334C3.5 10.9442 4.80584 12.25 6.41667 12.25V12.8333C6.41667 13.1555 6.67783 13.4167 7 13.4167C7.32217 13.4167 7.58333 13.1555 7.58333 12.8333V12.25C9.19416 12.25 10.5 10.9442 10.5 9.33334C10.5 7.72251 9.19416 6.41668 7.58333 6.41668V2.91668C8.54983 2.91668 9.33333 3.70018 9.33333 4.66668C9.33333 4.98884 9.5945 5.25001 9.91667 5.25001C10.2388 5.25001 10.5 4.98884 10.5 4.66668C10.5 3.05585 9.19416 1.75001 7.58333 1.75001V1.16668ZM6.41667 2.91668C5.45017 2.91668 4.66667 3.70018 4.66667 4.66668C4.66667 5.63317 5.45017 6.41668 6.41667 6.41668V2.91668ZM7.58333 7.58334V11.0833C8.54983 11.0833 9.33333 10.2998 9.33333 9.33334C9.33333 8.36684 8.54983 7.58334 7.58333 7.58334Z" fill="#ADADAD"/>
</svg>
