<svg width="15" height="15" viewBox="0 0 15 15" fill="none" xmlns="http://www.w3.org/2000/svg">
<path d="M12.9863 2.89754C13.2304 2.65346 13.2304 2.25773 12.9863 2.01366C12.7423 1.76958 12.3465 1.76958 12.1025 2.01366L10.5178 3.59836V2.4556C10.5178 2.11042 10.2379 1.8306 9.89275 1.8306C9.54757 1.8306 9.26775 2.11042 9.26775 2.4556L9.26775 5.10725C9.26775 5.45243 9.54757 5.73225 9.89275 5.73225H12.5444C12.8896 5.73225 13.1694 5.45243 13.1694 5.10725C13.1694 4.76207 12.8896 4.48225 12.5444 4.48225H11.4016L12.9863 2.89754Z" fill="#ADADAD"/>
<path d="M5.73222 9.89278C5.73222 9.72702 5.66637 9.56805 5.54916 9.45084C5.43195 9.33363 5.27298 9.26778 5.10722 9.26778L2.45557 9.26778C2.11039 9.26778 1.83057 9.54761 1.83057 9.89278C1.83057 10.238 2.11039 10.5178 2.45557 10.5178L3.59833 10.5178L2.01363 12.1025C1.76955 12.3466 1.76955 12.7423 2.01363 12.9864C2.2577 13.2305 2.65343 13.2305 2.89751 12.9864L4.48222 11.4017L4.48222 12.5444C4.48222 12.8896 4.76204 13.1694 5.10722 13.1694C5.45239 13.1694 5.73222 12.8896 5.73222 12.5444L5.73222 9.89278Z" fill="#ADADAD"/>
<path d="M2.89752 2.01368C2.65344 1.7696 2.25771 1.7696 2.01364 2.01368C1.76956 2.25775 1.76956 2.65348 2.01364 2.89756L3.59834 4.48227H2.45558C2.1104 4.48227 1.83058 4.76209 1.83058 5.10727C1.83058 5.45245 2.1104 5.73227 2.45558 5.73227H5.10723C5.45241 5.73227 5.73223 5.45245 5.73223 5.10727V2.45562C5.73223 2.11044 5.45241 1.83062 5.10723 1.83062C4.76205 1.83062 4.48223 2.11044 4.48223 2.45562V3.59839L2.89752 2.01368Z" fill="#ADADAD"/>
<path d="M9.89276 9.2678C9.727 9.2678 9.56803 9.33365 9.45082 9.45086C9.33361 9.56807 9.26776 9.72704 9.26776 9.89281L9.26776 12.5445C9.26776 12.8896 9.54759 13.1695 9.89276 13.1695C10.2379 13.1695 10.5178 12.8896 10.5178 12.5445L10.5178 11.4017L12.1025 12.9864C12.3465 13.2305 12.7423 13.2305 12.9864 12.9864C13.2304 12.7423 13.2304 12.3466 12.9864 12.1025L11.4016 10.5178L12.5444 10.5178C12.8896 10.5178 13.1694 10.238 13.1694 9.89281C13.1694 9.54763 12.8896 9.26781 12.5444 9.26781L9.89276 9.2678Z" fill="#ADADAD"/>
</svg>
