<svg width="18" height="18" viewBox="0 0 18 18" fill="none" xmlns="http://www.w3.org/2000/svg">
<path d="M10.5 10.5C12.5711 10.5 14.25 8.82107 14.25 6.75C14.25 4.67893 12.5711 3 10.5 3C8.42894 3 6.75001 4.67893 6.75001 6.75C6.75001 8.82107 8.42894 10.5 10.5 10.5Z" fill="#ADADAD"/>
<path d="M6.11656 15.3954C5.89819 15.7474 5.43583 15.8557 5.08386 15.6373C4.73188 15.4189 4.62358 14.9566 4.84196 14.6046C5.86901 12.9492 7.97011 11.25 10.5 11.25C13.0299 11.25 15.131 12.9492 16.1581 14.6046C16.3765 14.9566 16.2682 15.4189 15.9162 15.6373C15.5642 15.8557 15.1019 15.7474 14.8835 15.3954C14.0419 14.0389 12.3633 12.75 10.5 12.75C8.63677 12.75 6.95818 14.0389 6.11656 15.3954Z" fill="#ADADAD"/>
<path d="M5.9234 4.91979C6.10578 5.29169 5.95213 5.74102 5.58022 5.92339C4.89872 6.25758 4.50001 6.86385 4.50001 7.5C4.50001 8.13616 4.89872 8.74242 5.58022 9.07661C5.95213 9.25898 6.10578 9.70831 5.9234 10.0802C5.74103 10.4521 5.2917 10.6058 4.9198 10.4234C3.81219 9.88026 3.00001 8.80015 3.00001 7.5C3.00001 6.19985 3.81219 5.11974 4.9198 4.57661C5.2917 4.39423 5.74103 4.54788 5.9234 4.91979Z" fill="#ADADAD"/>
<path d="M3.11656 15.3954C2.89819 15.7474 2.43583 15.8557 2.08386 15.6373C1.73188 15.4189 1.62358 14.9566 1.84196 14.6046C2.27628 13.9046 2.97118 13.3203 3.74644 12.867C4.10401 12.6579 4.56337 12.7782 4.77246 13.1358C4.98154 13.4934 4.86117 13.9527 4.5036 14.1618C3.85582 14.5406 3.37922 14.9721 3.11656 15.3954Z" fill="#ADADAD"/>
</svg>
