<svg width="13" height="14" viewBox="0 0 13 14" fill="none" xmlns="http://www.w3.org/2000/svg">
<path d="M5.28125 8.8V9.6C5.28125 9.93333 5.39988 10.2165 5.63713 10.4496C5.87383 10.6832 6.16146 10.8 6.5 10.8C6.83854 10.8 7.12617 10.6832 7.36287 10.4496C7.60012 10.2165 7.71875 9.93333 7.71875 9.6V8.8H8.53125C8.86979 8.8 9.15742 8.6832 9.39412 8.4496C9.63137 8.21653 9.75 7.93333 9.75 7.6C9.75 7.26667 9.63137 6.98347 9.39412 6.7504C9.15742 6.5168 8.86979 6.4 8.53125 6.4H7.71875V5.6C7.71875 5.26667 7.60012 4.98347 7.36287 4.7504C7.12617 4.5168 6.83854 4.4 6.5 4.4C6.16146 4.4 5.87383 4.5168 5.63713 4.7504C5.39988 4.98347 5.28125 5.26667 5.28125 5.6V6.4H4.46875C4.13021 6.4 3.84258 6.5168 3.60587 6.7504C3.36862 6.98347 3.25 7.26667 3.25 7.6C3.25 7.93333 3.36862 8.21653 3.60587 8.4496C3.84258 8.6832 4.13021 8.8 4.46875 8.8H5.28125ZM1.625 14C1.17812 14 0.795708 13.8435 0.47775 13.5304C0.15925 13.2168 0 12.84 0 12.4V5.2C0 4.94667 0.0576873 4.70667 0.173062 4.48C0.287896 4.25333 0.446875 4.06667 0.65 3.92L5.525 0.32C5.80938 0.106667 6.13438 0 6.5 0C6.86562 0 7.19062 0.106667 7.475 0.32L12.35 3.92C12.5531 4.06667 12.7124 4.25333 12.8278 4.48C12.9426 4.70667 13 4.94667 13 5.2V12.4C13 12.84 12.841 13.2168 12.5231 13.5304C12.2046 13.8435 11.8219 14 11.375 14H1.625Z" fill="#DDFF00"/>
</svg>
